<svg xmlns="http://www.w3.org/2000/svg" viewBox="0 0 512 512"><style>path,rect{fill: #fff;stroke: #000;stroke-miterlimit:10;stroke-width:5px;}</style><path d="m240.5,488.5c-64.11,0-124.38-24.96-169.71-70.29C25.46,372.88.5,312.61.5,248.5c0-60.73,22.75-118.7,64.05-163.21,15.03-16.19,40.34-17.14,56.53-2.11,16.19,15.03,17.14,40.34,2.11,56.53-27.53,29.67-42.7,68.31-42.7,108.79,0,88.22,71.78,160,160,160s160-71.78,160-160c0-40.48-15.16-79.12-42.7-108.79-15.03-16.19-14.08-41.5,2.11-56.53s41.5-14.08,56.53,2.11c41.31,44.51,64.06,102.47,64.06,163.21,0,64.11-24.96,124.38-70.29,169.71-45.33,45.33-105.6,70.29-169.71,70.29Z"/><rect x="200.5" y=".5" width="80" height="240" rx="40" ry="40"/></svg>